<?xml version="1.0" encoding="UTF-8" standalone="no"?>
<svg xmlns="http://www.w3.org/2000/svg" x="0px" y="0px" width="512px" height="512px" viewBox="0 0 512 512" enable-background="new 0 0 512 512" xml:space="preserve" version="1.1">
    <path fill="#000000" d="m 318.938,376.032 c 13.283,-11.658 14.596,-31.907 2.905,-45.158 l -65.811,-74.967 66.313,-74.595 c 11.75,-13.188 10.56,-33.438 -2.627,-45.188 -13.248,-11.783 -33.498,-10.593 -45.248,2.624 l -85.127,95.718 c -0.998,1.095 -1.312,2.471 -2.125,3.626 -1.279,1.907 -2.531,3.718 -3.376,5.782 -0.685,1.812 -1.03,3.594 -1.437,5.438 -0.438,2.188 -0.874,4.281 -0.842,6.498 0,1.876 0.375,3.69 0.717,5.565 0.375,2.125 0.752,4.218 1.594,6.281 0.752,1.876 1.907,3.469 3.002,5.217 0.841,1.314 1.248,2.812 2.31,4 l 84.532,96.252 c 11.69,13.281 31.908,14.594 45.22,2.907 z" />
</svg>